:SAMPLES-PER-SECOND 30
:FULLY-SPECIFIED
:DEGREES
350
root  -8.63653 37.9723 13.5927 174.472 36.7499 174.117
RightUpLeg  -21.8238 -7.60653 -16.4995
RightLeg  40.1789 -4.21619 -4.0765
RightFoot  1.76852 -2.62551 22.7154
RightToes  -1.39699e-009 0 -3.6325e-017
Spine  10.856 -0.758498 -9.94288
Spine1  21.4114 -3.17006 2.42417
HEad  -11.4096 29.2821 -11.1226
LeftShoulder1  1.41378 -2.81175 -15.5921
LeftArm  12.0203 6.36096 -55.5359
LeftForeArm  70.5084 -79.3255 -78.7156
LeftHand  -1.85455 -2.94066 25.7191
RightShoulder  0.515589 -0.741209 11.626
RightArm  7.75525 -11.4662 60.9541
RightForeArm  156.457 64.5768 157.889
RightHand  -0.784221 4.1379 -9.80503
LeftUpLeg  -3.62758 -8.22837 1.79748
LeftLeg  28.096 -1.84308 -0.709898
LeftFoot  -20.9916 -0.910167 -12.2316
LeftToes  3.40148e-010 1.80944e-010 1.01921e-010
351
root  -8.60618 38.1192 13.5405 174.799 35.7115 174.116
RightUpLeg  -20.865 -6.81898 -17.1971
RightLeg  37.0248 -3.43929 -3.06123
RightFoot  0.18853 -2.48751 24.308
RightToes  -1.39699e-009 0 -3.6325e-017
Spine  10.6171 -0.806071 -10.1191
Spine1  21.1272 -3.37681 2.9072
HEad  -11.4478 28.3628 -11.0906
LeftShoulder1  1.38236 -2.61359 -15.82
LeftArm  11.5364 7.19115 -54.3679
LeftForeArm  75.7303 -79.4726 -83.9243
LeftHand  -1.76211 -2.92983 24.5205
RightShoulder  0.495138 -0.834975 11.5069
RightArm  7.97213 -12.4565 60.9583
RightForeArm  156.779 64.0319 158.424
RightHand  -0.738217 3.9971 -9.37839
LeftUpLeg  -3.64288 -9.01185 1.73496
LeftLeg  27.1505 -2.10843 -0.821089
LeftFoot  -19.9629 -0.812882 -12.3284
LeftToes  3.40148e-010 1.80944e-010 1.01921e-010
352
root  -8.52185 38.2937 13.4919 175.491 34.945 174.519
RightUpLeg  -19.5113 -3.94237 -17.6076
RightLeg  31.5009 -1.2226 -1.06337
RightFoot  -1.55567 -2.16422 24.78
RightToes  -1.39699e-009 0 -3.6325e-017
Spine  10.3895 -0.895456 -9.2907
Spine1  20.655 -3.23505 2.78474
HEad  -11.6475 27.312 -11.008
LeftShoulder1  1.38056 -2.62398 -15.7479
LeftArm  11.5179 8.01966 -53.3267
LeftForeArm  78.9975 -79.5294 -86.8947
LeftHand  -1.71107 -2.88537 23.9595
RightShoulder  0.480928 -0.891267 11.3484
RightArm  7.80144 -13.0768 60.7488
RightForeArm  156.628 63.6975 158.705
RightHand  -0.68727 3.74101 -8.98096
LeftUpLeg  -3.73545 -9.96783 2.06925
LeftLeg  26.2072 -1.93398 -0.685763
LeftFoot  -18.741 -0.699633 -12.5121
LeftToes  3.40148e-010 1.80944e-010 1.01921e-010
353
root  -8.33651 38.3793 13.459 176.224 34.6015 174.962
RightUpLeg  -18.5243 1.21324 -17.974
RightLeg  26.4348 1.43997 0.570041
RightFoot  -2.37003 -1.96301 24.4621
RightToes  -1.39699e-009 0 -3.6325e-017
Spine  9.92347 -0.923291 -8.21731
Spine1  20.3101 -2.79117 2.05825
HEad  -11.7223 26.401 -10.8705
LeftShoulder1  1.3884 -2.75603 -15.3659
LeftArm  11.5937 8.77475 -52.6943
LeftForeArm  80.1567 -79.5417 -87.9704
LeftHand  -1.70179 -2.84971 23.932
RightShoulder  0.469204 -0.940071 11.2306
RightArm  7.41723 -12.9027 60.2986
RightForeArm  155.374 63.5031 158.746
RightHand  -0.625593 3.26639 -8.61828
LeftUpLeg  -4.00403 -10.7405 2.63916
LeftLeg  25.8922 -1.65258 -0.523787
LeftFoot  -18.0097 -0.645869 -12.8863
LeftToes  3.40148e-010 1.80944e-010 1.01921e-010
354
root  -8.07031 38.3784 13.4761 176.923 33.9993 175.375
RightUpLeg  -17.8845 5.19211 -18.0413
RightLeg  23.769 3.0895 1.28287
RightFoot  -3.21587 -1.73345 23.7657
RightToes  -1.39699e-009 0 -3.6325e-017
Spine  9.35453 -1.01261 -7.56912
Spine1  20.3239 -2.64341 1.7443
HEad  -11.8002 25.7541 -10.9042
LeftShoulder1  1.39151 -2.84031 -15.0974
LeftArm  11.4466 9.17663 -52.3115
LeftForeArm  80.0983 -79.54 -87.9444
LeftHand  -1.67742 -2.80254 23.7313
RightShoulder  0.4552 -0.98646 10.9868
RightArm  6.86844 -11.8192 59.7949
RightForeArm  153.405 63.3366 158.691
RightHand  -0.552334 2.5531 -8.27544
LeftUpLeg  -4.57554 -11.609 3.37644
LeftLeg  26.2038 -1.57937 -0.496479
LeftFoot  -17.7814 -0.647258 -13.3411
LeftToes  3.40148e-010 1.80944e-010 1.01921e-010
355
root  -7.79268 38.3748 13.5678 177.538 32.4976 175.992
RightUpLeg  -16.7536 4.77747 -17.2406
RightLeg  22.659 3.40232 1.34774
RightFoot  -4.59471 -1.40203 22.9551
RightToes  -1.39699e-009 0 -3.6325e-017
Spine  9.25545 -1.29338 -7.06872
Spine1  20.4707 -3.08742 2.37305
HEad  -11.8807 25.1759 -11.0075
LeftShoulder1  1.40433 -2.87473 -15.1877
LeftArm  11.308 8.96867 -51.9292
LeftForeArm  79.1403 -79.5335 -86.9468
LeftHand  -1.6395 -2.70701 23.4772
RightShoulder  0.43961 -1.01533 10.5193
RightArm  5.83578 -10.2648 59.5246
RightForeArm  151.729 63.3942 158.47
RightHand  -0.469804 1.58724 -7.97299
LeftUpLeg  -5.22895 -12.9422 4.37282
LeftLeg  26.5444 -1.77414 -0.616547
LeftFoot  -17.5769 -0.640616 -13.6339
LeftToes  3.40148e-010 1.80944e-010 1.01921e-010
356
root  -7.51507 38.3828 13.7202 177.76 30.6136 176.74
RightUpLeg  -15.1376 1.76234 -15.8931
RightLeg  21.928 2.94686 1.09113
RightFoot  -5.90674 -1.09984 22.0628
RightToes  -1.39699e-009 0 -3.6325e-017
Spine  9.89992 -1.56802 -6.13598
Spine1  20.4359 -3.502 3.00998
HEad  -11.7885 24.3864 -10.789
LeftShoulder1  1.44958 -3.03428 -15.3585
LeftArm  11.4348 8.26509 -51.7335
LeftForeArm  76.7614 -79.5071 -84.3304
LeftHand  -1.60819 -2.56523 23.4384
RightShoulder  0.42826 -1.02837 10.1086
RightArm  4.08202 -8.73613 59.412
RightForeArm  150.805 64.0226 157.806
RightHand  -0.368992 0.311917 -7.57286
LeftUpLeg  -5.4868 -14.55 5.48129
LeftLeg  26.6551 -1.96594 -0.729412
LeftFoot  -17.2893 -0.621035 -13.8836
LeftToes  3.40148e-010 1.80944e-010 1.01921e-010
